<?xml version="1.0" encoding="UTF-8" standalone="no" ?>
<!DOCTYPE svg PUBLIC "-//W3C//DTD SVG 1.1//EN" "http://www.w3.org/Graphics/SVG/1.1/DTD/svg11.dtd">
<svg xmlns="http://www.w3.org/2000/svg" xmlns:xlink="http://www.w3.org/1999/xlink" version="1.1" width="500" height="500" viewBox="0 0 500 500" xml:space="preserve">
<desc>Created with Fabric.js 4.6.0</desc>
<defs>
</defs>
<g transform="matrix(1 0 0 1 342.72 250.23)" id="bvofkRFulq15idyr2Jcgb"  >
<path style="stroke: none; stroke-width: 1; stroke-dasharray: none; stroke-linecap: butt; stroke-dashoffset: 0; stroke-linejoin: miter; stroke-miterlimit: 4; fill: rgb(102,16,242); fill-rule: nonzero; opacity: 1;" vector-effect="non-scaling-stroke"  transform=" translate(0, 0)" d="M -15.1635 -22.2625 C -16.0735 -22.2625 -16.7885 -22.1325 -17.308500000000002 -21.8725 C -17.785500000000003 -21.612499999999997 -18.131500000000003 -21.0275 -18.3485 -20.1175 C -18.5215 -19.2075 -18.608500000000003 -17.7558 -18.608500000000003 -15.7625 L -18.608500000000003 -9.392499999999998 C -18.608500000000003 -7.745799999999998 -18.868500000000004 -6.315799999999998 -19.388500000000004 -5.102499999999998 C -19.865500000000004 -3.9324999999999983 -20.428500000000003 -2.9791999999999983 -21.078500000000005 -2.2424999999999984 C -21.728500000000004 -1.5057999999999985 -22.335500000000007 -0.9424999999999983 -22.898500000000006 -0.5524999999999984 C -22.421500000000005 -0.20579999999999843 -21.858500000000006 0.33580000000000154 -21.208500000000004 1.0725000000000016 C -20.515500000000003 1.7658000000000016 -19.908500000000004 2.6325000000000016 -19.388500000000004 3.6725000000000017 C -18.868500000000004 4.669200000000002 -18.608500000000003 5.795800000000002 -18.608500000000003 7.052500000000002 L -18.608500000000003 14.852500000000003 C -18.608500000000003 16.802500000000002 -18.521500000000003 18.2325 -18.3485 19.142500000000002 C -18.131500000000003 20.052500000000002 -17.785500000000003 20.637500000000003 -17.308500000000002 20.8975 C -16.788500000000003 21.157500000000002 -16.073500000000003 21.2875 -15.163500000000003 21.2875 L -12.758500000000003 21.2875 L -12.758500000000003 29.2175 L -17.893500000000003 29.2175 C -19.106500000000004 29.2175 -20.320500000000003 29.195800000000002 -21.533500000000004 29.1525 C -22.703500000000005 29.1092 -23.786500000000004 28.8708 -24.783500000000004 28.4375 C -25.780500000000004 28.0475 -26.581500000000005 27.2892 -27.188500000000005 26.1625 C -27.751500000000004 25.0792 -28.033500000000004 23.497500000000002 -28.033500000000004 21.4175 L -28.033500000000004 10.6925 C -28.033500000000004 8.742500000000001 -28.466500000000003 7.009200000000001 -29.333500000000004 5.492500000000001 C -30.200500000000005 3.9325000000000006 -31.521500000000003 3.1308000000000007 -33.298500000000004 3.087500000000001 L -33.298500000000004 -4.452499999999999 C -31.521500000000003 -4.495799999999999 -30.200500000000005 -5.2757999999999985 -29.333500000000004 -6.792499999999999 C -28.466500000000003 -8.309199999999999 -28.033500000000004 -10.0642 -28.033500000000004 -12.057499999999997 L -28.033500000000004 -22.327499999999997 C -28.033500000000004 -24.4075 -27.751500000000004 -25.989169999999998 -27.188500000000005 -27.072499999999998 C -26.625500000000006 -28.155839999999998 -25.866500000000006 -28.91417 -24.913500000000006 -29.347499999999997 C -23.916500000000006 -29.780829999999998 -22.811500000000006 -30.019169999999995 -21.598500000000005 -30.062499999999996 C -20.385500000000004 -30.149169999999998 -19.150500000000005 -30.192499999999995 -17.893500000000003 -30.192499999999995 L -12.758500000000003 -30.192499999999995 L -12.758500000000003 -22.262499999999996 z M 33.2985 0.0325 C 33.2985 4.4525 32.756499999999996 8.5908 31.673499999999997 12.4475 C 30.633499999999998 16.3042 29.289499999999997 19.7275 27.643499999999996 22.7175 C 25.996499999999997 25.7508 24.241499999999995 28.2425 22.378499999999995 30.192500000000003 L 14.903499999999996 26.747500000000002 C 17.459499999999995 23.800800000000002 19.583499999999994 20.117500000000003 21.273499999999995 15.697500000000002 C 22.963499999999996 11.234200000000001 23.808499999999995 6.012500000000001 23.808499999999995 0.032500000000002416 C 23.808499999999995 -5.947499999999998 22.963499999999996 -11.147499999999997 21.273499999999995 -15.567499999999997 C 19.583499999999994 -20.0308 17.459499999999995 -23.714169999999996 14.903499999999994 -26.6175 L 22.378499999999995 -30.127499999999998 C 24.241499999999995 -28.1775 25.996499999999994 -25.68584 27.643499999999996 -22.652499999999996 C 29.289499999999997 -19.619199999999996 30.633499999999998 -16.174199999999995 31.673499999999997 -12.317499999999995 C 32.756499999999996 -8.504199999999996 33.2985 -4.387499999999996 33.2985 0.03250000000000419 z" stroke-linecap="round" />
</g>
<g transform="matrix(1 0 0 1 228.17 253.94)" style="" id="WTzPDjxv1cs2rWbK_Rzkn"  >
		<text xml:space="preserve" font-family="Orbitron" font-size="60" font-style="normal" font-weight="700" line-height="1" style="stroke: none; stroke-width: 1; stroke-dasharray: none; stroke-linecap: butt; stroke-dashoffset: 0; stroke-linejoin: miter; stroke-miterlimit: 4; fill: rgb(255,255,255); fill-rule: nonzero; opacity: 1; white-space: pre;" ><tspan x="-174.78" y="18.85" >MAXCO</tspan></text>
</g>
<g transform="matrix(1 0 0 1 406.97 253.94)" style="" id="qdqjMh3HyF5NANICO-y4H"  >
		<text xml:space="preserve" font-family="Orbitron" font-size="60" font-style="normal" font-weight="700" line-height="1" style="stroke: none; stroke-width: 1; stroke-dasharray: none; stroke-linecap: butt; stroke-dashoffset: 0; stroke-linejoin: miter; stroke-miterlimit: 4; fill: rgb(255,255,255); fill-rule: nonzero; opacity: 1; white-space: pre;" ><tspan x="-22.98" y="18.85" >E</tspan></text>
</g>
</svg>